<svg xmlns="http://www.w3.org/2000/svg" width="920" height="430" viewBox="0 0 920 430" role="img" aria-labelledby="title desc">
<title id="title">WikiBrain final-context benchmark</title>
<desc id="desc">8 of 8 final-context checks passed. Required context atom recall was 100.00 percent, clean-context rate was 100.00 percent, and forbidden-free rate was 100.00 percent. No checks failed.</desc>
<rect width="920" height="430" rx="24" fill="#0b1320"/>
<rect x="1" y="1" width="918" height="428" rx="23" fill="none" stroke="#25364a"/>
<text x="40" y="48" font-family="ui-sans-serif, system-ui, -apple-system, Segoe UI, sans-serif" font-size="13" font-weight="700" fill="#7dd3fc" text-anchor="start">SECOND-BRAIN BENCHMARK</text>
<text x="40" y="82" font-family="ui-sans-serif, system-ui, -apple-system, Segoe UI, sans-serif" font-size="26" font-weight="700" fill="#f8fafc" text-anchor="start">Final context recall quality</text>
<text x="40" y="108" font-family="ui-sans-serif, system-ui, -apple-system, Segoe UI, sans-serif" font-size="14" font-weight="400" fill="#8fa3b8" text-anchor="start">Fixed corpus · query context + SessionStart handoff</text>
<rect x="40" y="132" width="392" height="228" rx="16" fill="#101d2d"/>
<rect x="456" y="132" width="424" height="228" rx="16" fill="#101d2d"/>
<text x="64" y="164" font-family="ui-sans-serif, system-ui, -apple-system, Segoe UI, sans-serif" font-size="12" font-weight="700" fill="#8fa3b8" text-anchor="start">FUNCTIONAL CHECKS</text>
<text x="408" y="166" font-family="ui-sans-serif, system-ui, -apple-system, Segoe UI, sans-serif" font-size="22" font-weight="700" fill="#86efac" text-anchor="end">8/8</text>
<circle cx="71" cy="197" r="7" fill="#22c55e"/>
<path d="M67 197 l3 3 5 -6" fill="none" stroke="#07110b" stroke-width="2" stroke-linecap="round" stroke-linejoin="round"/>
<text x="86" y="202" font-family="ui-sans-serif, system-ui, -apple-system, Segoe UI, sans-serif" font-size="13" font-weight="400" fill="#d7e1ea" text-anchor="start">Current decision</text>
<circle cx="71" cy="235" r="7" fill="#22c55e"/>
<path d="M67 235 l3 3 5 -6" fill="none" stroke="#07110b" stroke-width="2" stroke-linecap="round" stroke-linejoin="round"/>
<text x="86" y="240" font-family="ui-sans-serif, system-ui, -apple-system, Segoe UI, sans-serif" font-size="13" font-weight="400" fill="#d7e1ea" text-anchor="start">Evidence links</text>
<circle cx="71" cy="273" r="7" fill="#22c55e"/>
<path d="M67 273 l3 3 5 -6" fill="none" stroke="#07110b" stroke-width="2" stroke-linecap="round" stroke-linejoin="round"/>
<text x="86" y="278" font-family="ui-sans-serif, system-ui, -apple-system, Segoe UI, sans-serif" font-size="13" font-weight="400" fill="#d7e1ea" text-anchor="start">People &amp; project</text>
<circle cx="71" cy="311" r="7" fill="#22c55e"/>
<path d="M67 311 l3 3 5 -6" fill="none" stroke="#07110b" stroke-width="2" stroke-linecap="round" stroke-linejoin="round"/>
<text x="86" y="316" font-family="ui-sans-serif, system-ui, -apple-system, Segoe UI, sans-serif" font-size="13" font-weight="400" fill="#d7e1ea" text-anchor="start">Source provenance</text>
<circle cx="245" cy="197" r="7" fill="#22c55e"/>
<path d="M241 197 l3 3 5 -6" fill="none" stroke="#07110b" stroke-width="2" stroke-linecap="round" stroke-linejoin="round"/>
<text x="260" y="202" font-family="ui-sans-serif, system-ui, -apple-system, Segoe UI, sans-serif" font-size="13" font-weight="400" fill="#d7e1ea" text-anchor="start">Workspace isolation</text>
<circle cx="245" cy="235" r="7" fill="#22c55e"/>
<path d="M241 235 l3 3 5 -6" fill="none" stroke="#07110b" stroke-width="2" stroke-linecap="round" stroke-linejoin="round"/>
<text x="260" y="240" font-family="ui-sans-serif, system-ui, -apple-system, Segoe UI, sans-serif" font-size="13" font-weight="400" fill="#d7e1ea" text-anchor="start">Secret redaction</text>
<circle cx="245" cy="273" r="7" fill="#22c55e"/>
<path d="M241 273 l3 3 5 -6" fill="none" stroke="#07110b" stroke-width="2" stroke-linecap="round" stroke-linejoin="round"/>
<text x="260" y="278" font-family="ui-sans-serif, system-ui, -apple-system, Segoe UI, sans-serif" font-size="13" font-weight="400" fill="#d7e1ea" text-anchor="start">Global preference</text>
<circle cx="245" cy="311" r="7" fill="#22c55e"/>
<path d="M241 311 l3 3 5 -6" fill="none" stroke="#07110b" stroke-width="2" stroke-linecap="round" stroke-linejoin="round"/>
<text x="260" y="316" font-family="ui-sans-serif, system-ui, -apple-system, Segoe UI, sans-serif" font-size="13" font-weight="400" fill="#d7e1ea" text-anchor="start">Claude → Codex</text>
<text x="480" y="164" font-family="ui-sans-serif, system-ui, -apple-system, Segoe UI, sans-serif" font-size="12" font-weight="700" fill="#8fa3b8" text-anchor="start">CONTEXT QUALITY</text>
<text x="480" y="214" font-family="ui-sans-serif, system-ui, -apple-system, Segoe UI, sans-serif" font-size="13" font-weight="700" fill="#d7e1ea" text-anchor="start">Required atoms</text>
<rect x="632" y="194" width="150" height="24" rx="8" fill="#1e3044"/>
<rect x="632" y="194" width="150" height="24" rx="8" fill="#38bdf8"/>
<text x="856" y="214" font-family="ui-sans-serif, system-ui, -apple-system, Segoe UI, sans-serif" font-size="13" font-weight="700" fill="#f8fafc" text-anchor="end">100.00%</text>
<text x="480" y="272" font-family="ui-sans-serif, system-ui, -apple-system, Segoe UI, sans-serif" font-size="13" font-weight="700" fill="#d7e1ea" text-anchor="start">Clean contexts</text>
<rect x="632" y="252" width="150" height="24" rx="8" fill="#1e3044"/>
<rect x="632" y="252" width="150" height="24" rx="8" fill="#86efac"/>
<text x="856" y="272" font-family="ui-sans-serif, system-ui, -apple-system, Segoe UI, sans-serif" font-size="13" font-weight="700" fill="#f8fafc" text-anchor="end">100.00%</text>
<text x="480" y="330" font-family="ui-sans-serif, system-ui, -apple-system, Segoe UI, sans-serif" font-size="13" font-weight="700" fill="#d7e1ea" text-anchor="start">Forbidden-free</text>
<rect x="632" y="310" width="150" height="24" rx="8" fill="#1e3044"/>
<rect x="632" y="310" width="150" height="24" rx="8" fill="#a78bfa"/>
<text x="856" y="330" font-family="ui-sans-serif, system-ui, -apple-system, Segoe UI, sans-serif" font-size="13" font-weight="700" fill="#f8fafc" text-anchor="end">100.00%</text>
<line x1="40" y1="386" x2="880" y2="386" stroke="#25364a"/>
<text x="40" y="411" font-family="ui-sans-serif, system-ui, -apple-system, Segoe UI, sans-serif" font-size="12" font-weight="400" fill="#8fa3b8" text-anchor="start">macOS 26.5.2 · arm64 · Python 3.13.11 · wikimap 1.1.0</text>
<text x="864" y="411" font-family="ui-sans-serif, system-ui, -apple-system, Segoe UI, sans-serif" font-size="12" font-weight="400" fill="#8fa3b8" text-anchor="end">Higher is better</text>
</svg>
